<svg width="181" height="40" fill="none" xmlns="http://www.w3.org/2000/svg"><path d="M20.003 15.235a4.77 4.77 0 00-4.4 2.944 4.777 4.777 0 001.035 5.193 4.779 4.779 0 005.193 1.035 4.784 4.784 0 002.139-1.752 4.761 4.761 0 00-.6-6.014 4.752 4.752 0 00-3.367-1.406zm11.14-3.656a4.81 4.81 0 00-2.717-2.717c-1.877-.738-6.34-.572-8.423-.572s-6.539-.173-8.422.572a4.811 4.811 0 00-2.717 2.717C8.126 13.455 8.29 17.924 8.29 20c0 2.076-.165 6.545.58 8.42a4.81 4.81 0 002.717 2.718c1.876.738 6.34.572 8.422.572 2.083 0 6.54.173 8.422-.572a4.811 4.811 0 002.718-2.717c.745-1.876.573-6.345.573-8.421 0-2.076.165-6.538-.58-8.42zm-11.14 15.745a7.316 7.316 0 01-4.07-1.234 7.4 7.4 0 01-2.696-3.29 7.328 7.328 0 015.345-9.986 7.332 7.332 0 014.229.414 7.257 7.257 0 013.283 2.696 7.341 7.341 0 01.683 6.869 7.267 7.267 0 01-1.587 2.38 7.268 7.268 0 01-2.38 1.586 7.29 7.29 0 01-2.807.565zm7.622-13.241a1.68 1.68 0 01-.951-.29 1.66 1.66 0 01-.628-.765 1.665 1.665 0 01-.097-.987 1.73 1.73 0 01.47-.876c.24-.24.544-.4.875-.468a1.66 1.66 0 01.987.096c.31.131.58.352.765.628.187.282.29.614.29.951 0 .228-.041.449-.131.656a1.862 1.862 0 01-.365.558 1.77 1.77 0 01-.552.373 1.791 1.791 0 01-.663.124zM35.724 0H4.283A4.282 4.282 0 000 4.283V35.71c0 1.138.448 2.228 1.255 3.028A4.26 4.26 0 004.284 40h31.433a4.258 4.258 0 003.028-1.255A4.28 4.28 0 0040 35.717V4.283a4.257 4.257 0 00-1.255-3.028A4.254 4.254 0 0035.723 0zm-1.53 25.89c-.118 2.29-.636 4.317-2.312 5.979-1.676 1.662-3.697 2.2-5.98 2.31-2.359.131-9.43.131-11.788 0-2.29-.117-4.311-.641-5.98-2.31-1.67-1.669-2.2-3.697-2.311-5.98-.131-2.358-.131-9.427 0-11.786.117-2.29.634-4.317 2.31-5.979 1.677-1.662 3.704-2.193 5.98-2.303 2.36-.131 9.43-.131 11.789 0 2.29.117 4.318.641 5.98 2.31 1.663 1.669 2.2 3.697 2.311 5.986.131 2.352.131 9.414 0 11.773z" fill="url(#paint0_radial)"/><path d="M20.003 15.234a4.77 4.77 0 00-4.4 2.945 4.777 4.777 0 001.035 5.193 4.779 4.779 0 005.193 1.034 4.784 4.784 0 002.139-1.752 4.76 4.76 0 00-.6-6.013 4.752 4.752 0 00-3.367-1.407zm11.14-3.655a4.811 4.811 0 00-2.717-2.717c-1.877-.738-6.34-.573-8.423-.573s-6.539-.172-8.422.573a4.811 4.811 0 00-2.717 2.717c-.738 1.876-.573 6.345-.573 8.42 0 2.076-.165 6.545.58 8.42a4.811 4.811 0 002.717 2.718c1.876.738 6.34.572 8.422.572 2.083 0 6.54.173 8.422-.572a4.813 4.813 0 002.718-2.717c.745-1.876.573-6.345.573-8.42 0-2.076.165-6.538-.58-8.421zm-11.14 15.744a7.316 7.316 0 01-4.07-1.234 7.4 7.4 0 01-2.696-3.29 7.328 7.328 0 015.345-9.986 7.331 7.331 0 014.229.414 7.257 7.257 0 013.283 2.697 7.341 7.341 0 01.683 6.869 7.267 7.267 0 01-1.587 2.379 7.269 7.269 0 01-2.38 1.586 7.29 7.29 0 01-2.807.565zm7.622-13.24a1.68 1.68 0 01-.951-.29 1.66 1.66 0 01-.628-.766 1.665 1.665 0 01-.097-.986 1.73 1.73 0 01.47-.876c.24-.241.544-.4.875-.469.331-.069.676-.034.987.097.31.13.58.352.765.627.187.283.29.614.29.952 0 .228-.041.448-.131.655a1.864 1.864 0 01-.365.559 1.772 1.772 0 01-.552.372 1.793 1.793 0 01-.663.124zM35.724 0H4.283A4.282 4.282 0 000 4.283v31.426c0 1.138.448 2.228 1.255 3.028a4.26 4.26 0 003.029 1.262h31.433a4.258 4.258 0 003.028-1.255A4.28 4.28 0 0040 35.716V4.283a4.257 4.257 0 00-1.255-3.028A4.254 4.254 0 0035.723 0zm-1.53 25.889c-.118 2.29-.636 4.317-2.312 5.979-1.676 1.662-3.697 2.2-5.98 2.31-2.359.131-9.43.131-11.788 0-2.29-.117-4.311-.641-5.98-2.31-1.67-1.669-2.2-3.696-2.311-5.98-.131-2.358-.131-9.427 0-11.785.117-2.29.634-4.317 2.31-5.98 1.677-1.661 3.704-2.192 5.98-2.302 2.36-.132 9.43-.132 11.789 0 2.29.117 4.318.64 5.98 2.31 1.663 1.669 2.2 3.696 2.311 5.986.131 2.351.131 9.413 0 11.772z" fill="url(#paint1_radial)"/><path d="M60.54 4.166c-2.6 1.087-5.458 4.15-6.364 8.002-1.141 4.878 3.614 6.943 4.006 6.27.46-.794-.858-1.06-1.121-3.593-.351-3.274 1.169-6.922 3.094-8.525.358-.3.338.115.338.883 0 1.372-.075 13.681-.075 16.256 0 3.47-.142 4.578-.405 5.658-.264 1.1-.682 1.841-.365 2.133.358.32 1.878-.442 2.763-1.664 1.054-1.474 1.425-3.24 1.493-5.163.081-2.31.074-5.984.081-8.077 0-1.922.034-7.547-.034-10.93-.027-.842-2.33-1.712-3.411-1.25zm92.309 16.27c-.081 1.807-.486 3.22-.979 4.218-.966 1.93-2.959 2.527-3.81-.244-.467-1.515-.487-4.042-.156-6.148.338-2.154 1.284-3.77 2.844-3.628 1.547.143 2.27 2.133 2.101 5.802zM126.828 31.65c-.02 3.002-.493 5.638-1.506 6.406-1.439 1.08-3.371.271-2.973-1.923.359-1.943 2.034-3.92 4.493-6.338-.007-.006-.007.544-.014 1.855zm-.392-11.236c-.087 1.644-.52 3.302-.986 4.232-.959 1.93-2.972 2.534-3.81-.244-.574-1.895-.432-4.355-.155-5.903.365-2.011 1.25-3.872 2.851-3.872 1.56.006 2.317 1.698 2.1 5.787zm-15.07-.02c-.095 1.739-.439 3.2-.98 4.26-.993 1.915-2.952 2.526-3.81-.245-.621-1.998-.412-4.715-.155-6.189.385-2.187 1.344-3.73 2.844-3.58 1.547.143 2.297 2.126 2.101 5.754zm69.071 2.038c-.378 0-.554.387-.696 1.04-.493 2.268-1.006 2.784-1.682 2.784-.75 0-1.418-1.12-1.594-3.376-.135-1.766-.115-5.027.061-8.274.034-.665-.149-1.324-1.939-1.976-.77-.286-1.891-.693-2.445.652-1.574 3.797-2.189 6.806-2.338 8.029-.006.061-.087.075-.101-.075-.094-.978-.297-2.765-.324-6.507-.007-.734-.162-1.352-.966-1.862-.527-.326-2.114-.917-2.689-.224-.5.57-1.067 2.1-1.668 3.913a340.231 340.231 0 01-.824 2.466s.006-3.974.013-5.482c0-.57-.392-.761-.506-.795-.534-.156-1.574-.408-2.02-.408-.547 0-.683.306-.683.754 0 .061-.087 5.238-.087 8.852v.51c-.304 1.657-1.284 3.919-2.351 3.919s-1.574-.938-1.574-5.258c0-2.513.074-3.607.115-5.428.02-1.046.061-1.854.061-2.038-.007-.557-.98-.842-1.426-.944-.452-.108-.851-.15-1.155-.129-.439.027-.75.313-.75.707v.611c-.56-.883-1.459-1.495-2.067-1.671-1.614-.476-3.303-.055-4.58 1.718-1.006 1.413-1.621 3.01-1.864 5.313-.176 1.677-.122 3.39.196 4.823-.379 1.623-1.081 2.289-1.844 2.289-1.108 0-1.919-1.814-1.824-4.945.06-2.066.479-3.506.932-5.605.196-.896.034-1.358-.358-1.807-.358-.407-1.122-.618-2.229-.36-.791.184-1.905.38-2.939.53 0 0 .061-.251.115-.686.27-2.282-2.216-2.099-3.013-1.372-.473.435-.797.944-.912 1.875-.196 1.467 1 2.16 1 2.16-.392 1.793-1.351 4.137-2.351 5.835-.533.91-.946 1.576-1.466 2.296 0-.271 0-.53-.006-.801-.014-3.77.04-6.739.06-7.812.021-1.046.061-1.834.061-2.018-.007-.407-.243-.564-.75-.76a4.95 4.95 0 00-1.499-.334c-.683-.054-1.088.313-1.081.734v.578c-.561-.883-1.459-1.495-2.067-1.671-1.615-.476-3.303-.055-4.58 1.718-1.007 1.413-1.675 3.397-1.865 5.299-.175 1.766-.141 3.274.095 4.544-.257 1.27-.993 2.595-1.831 2.595-1.074 0-1.675-.944-1.675-5.258 0-2.513.074-3.607.115-5.427.02-1.046.061-1.855.061-2.038-.007-.557-.98-.842-1.426-.944-.473-.11-.885-.15-1.189-.13-.412.035-.709.401-.709.68v.632c-.561-.883-1.459-1.495-2.067-1.671-1.614-.476-3.296-.048-4.58 1.718-.838 1.155-1.513 2.432-1.864 5.271a17.306 17.306 0 00-.142 2.303c-.338 2.038-1.804 4.382-3.006 4.382-.71 0-1.372-1.366-1.372-4.273 0-3.879.244-9.395.284-9.925 0 0 1.52-.027 1.817-.027.764-.006 1.446.007 2.459-.04.507-.028.993-1.841.473-2.072-.236-.102-1.912-.19-2.58-.21-.561-.015-2.115-.13-2.115-.13s.142-3.661.176-4.055c.027-.32-.392-.49-.635-.591-.588-.252-1.101-.36-1.723-.49-.858-.176-1.236-.006-1.317.714-.115 1.087-.176 4.286-.176 4.286-.628 0-2.77-.122-3.39-.122-.588 0-1.21 2.5-.406 2.534.932.034 2.54.068 3.607.101 0 0-.047 5.612-.047 7.337v.53c-.588 3.064-2.668 4.714-2.668 4.714.445-2.03-.466-3.546-2.108-4.836a176.48 176.48 0 00-3.128-2.358s.777-.76 1.46-2.289c.486-1.08.506-2.323-.69-2.595-1.965-.448-3.593.992-4.08 2.534-.378 1.196-.175 2.079.561 2.996.054.068.115.136.176.21a77.235 77.235 0 01-1.574 2.894c-1.432 2.48-2.52 4.443-3.337 4.443-.656 0-.649-1.99-.649-3.859 0-1.603.122-4.028.216-6.528.034-.829-.385-1.297-1.074-1.725-.425-.265-1.317-.768-1.844-.768-.783 0-3.033.109-5.16 6.25-.271.774-.798 2.187-.798 2.187l.047-7.39c0-.177-.094-.34-.304-.456-.358-.197-1.317-.59-2.168-.59-.405 0-.608.19-.608.563l-.054 11.616c0 .883.02 1.902.108 2.35.088.449.23.816.405 1.026.176.218.379.38.71.449.31.06 2 .285 2.087-.36.108-.775.108-1.604 1-4.715 1.378-4.843 3.175-7.207 4.026-8.05.148-.149.317-.156.31.089-.033 1.06-.162 3.716-.25 5.97-.229 6.033.872 7.16 2.446 7.16 1.202 0 2.898-1.195 4.722-4.211 1.128-1.882 2.236-3.73 3.02-5.06.553.509 1.168 1.052 1.783 1.636 1.432 1.359 1.905 2.656 1.594 3.88-.243.937-1.135 1.901-2.75.964-.465-.279-.668-.483-1.134-.795-.257-.17-.642-.217-.872-.04-.6.448-.945 1.025-1.135 1.738-.189.693.507 1.053 1.223 1.38.622.278 1.952.522 2.804.55 3.31.108 5.964-1.59 7.809-5.992.33 3.804 1.736 5.95 4.181 5.95 1.635 0 3.269-2.112 3.986-4.177.209.85.513 1.576.905 2.2 1.884 2.976 5.532 2.338 7.37-.196.567-.781.655-1.06.655-1.06.27 2.384 2.195 3.227 3.296 3.227 1.237 0 2.513-.584 3.405-2.595.108.217.223.421.344.625 1.885 2.975 5.533 2.337 7.37-.197.088-.122.162-.231.23-.32l.054 1.57s-1.047.958-1.689 1.549c-2.83 2.588-4.985 4.558-5.134 6.84-.202 2.914 2.169 4.008 3.959 4.144 1.905.15 3.533-.904 4.539-2.37.885-1.298 1.459-4.077 1.412-6.828-.02-1.1-.047-2.5-.067-4.008a31.508 31.508 0 003.141-4.313c1.121-1.855 2.33-4.355 2.938-6.297 0 0 1.041.006 2.162-.068.358-.02.459.047.392.312-.081.313-1.412 5.441-.196 8.858.837 2.337 2.709 3.091 3.816 3.091 1.297 0 2.547-.978 3.209-2.439.081.163.162.32.257.462 1.885 2.976 5.526 2.33 7.37-.197.419-.57.655-1.06.655-1.06.399 2.473 2.324 3.234 3.425 3.234 1.148 0 2.243-.469 3.121-2.56.033.923.094 1.67.189 1.908.054.15.385.326.621.414 1.047.387 2.121.21 2.52.13.277-.055.493-.28.52-.85.074-1.494.027-4 .487-5.862.763-3.125 1.465-4.34 1.803-4.939.189-.332.405-.387.412-.034.014.72.054 2.833.345 5.68.216 2.092.506 3.328.729 3.715.635 1.114 1.412 1.169 2.054 1.169.405 0 1.25-.116 1.175-.83-.034-.346.027-2.492.777-5.57.493-2.01 1.304-3.83 1.601-4.497.108-.244.162-.054.155-.013-.06 1.386-.202 5.917.365 8.396.77 3.356 2.979 3.73 3.756 3.73 1.648 0 2.993-1.25 3.452-4.552.115-.754-.041-1.365-.527-1.365z" fill="#3D3D3D"/><defs><radialGradient id="paint0_radial" cx="0" cy="0" r="1" gradientUnits="userSpaceOnUse" gradientTransform="matrix(47.44 0 0 47.4319 8.176 40.26)"><stop offset=".09" stop-color="#FA8F21"/><stop offset=".78" stop-color="#D82D7E"/></radialGradient><radialGradient id="paint1_radial" cx="0" cy="0" r="1" gradientUnits="userSpaceOnUse" gradientTransform="matrix(52.3146 0 0 52.3039 19.561 53.328)"><stop offset=".64" stop-color="#8C3AAA" stop-opacity="0"/><stop offset="1" stop-color="#8C3AAA"/></radialGradient></defs></svg>